<svg xmlns="http://www.w3.org/2000/svg" width="1200" height="630" viewBox="0 0 1200 630" role="img" aria-labelledby="title desc">
  <title id="title">抽獎動畫 Demo 分享圖</title>
  <desc id="desc">七種抽獎動畫風格的示意分享圖。</desc>
  <defs>
    <linearGradient id="bg" x1="0" x2="1" y1="0" y2="1">
      <stop offset="0%" stop-color="#050508"/>
      <stop offset="55%" stop-color="#111827"/>
      <stop offset="100%" stop-color="#312e81"/>
    </linearGradient>
    <radialGradient id="goldGlow" cx="24%" cy="18%" r="42%">
      <stop offset="0%" stop-color="#f59e0b" stop-opacity="0.5"/>
      <stop offset="100%" stop-color="#f59e0b" stop-opacity="0"/>
    </radialGradient>
    <radialGradient id="blueGlow" cx="80%" cy="20%" r="40%">
      <stop offset="0%" stop-color="#818cf8" stop-opacity="0.38"/>
      <stop offset="100%" stop-color="#818cf8" stop-opacity="0"/>
    </radialGradient>
  </defs>
  <rect width="1200" height="630" fill="url(#bg)"/>
  <rect width="1200" height="630" fill="url(#goldGlow)"/>
  <rect width="1200" height="630" fill="url(#blueGlow)"/>
  <rect x="84" y="84" width="1032" height="462" rx="34" fill="rgba(15,23,42,0.6)" stroke="rgba(255,255,255,0.12)"/>
  <text x="130" y="164" fill="#fcd34d" font-size="28" font-family="'Noto Sans TC', sans-serif" letter-spacing="6">DEMO LOTTERY</text>
  <text x="130" y="250" fill="#ffffff" font-size="68" font-weight="800" font-family="'Noto Sans TC', sans-serif">7 種抽獎動畫風格免費體驗</text>
  <text x="130" y="320" fill="rgba(255,255,255,0.82)" font-size="31" font-family="'Noto Sans TC', sans-serif">樂透氣流機、紅包雨、刮刮樂、寶箱、大寶箱、圓球賽跑、戰鬥陀螺</text>
  <g transform="translate(116,392)">
    <rect x="0" y="0" width="128" height="82" rx="22" fill="#f59e0b" fill-opacity="0.18" stroke="#f59e0b" stroke-opacity="0.5"/>
    <circle cx="64" cy="41" r="24" fill="#fbbf24"/>
    <circle cx="54" cy="31" r="8" fill="#fff" fill-opacity="0.32"/>
    <rect x="148" y="0" width="128" height="82" rx="22" fill="#ef4444" fill-opacity="0.18" stroke="#ef4444" stroke-opacity="0.5"/>
    <path d="M190 20h44l10 18-32 24-32-24z" fill="#f87171"/>
    <rect x="296" y="0" width="128" height="82" rx="22" fill="#94a3b8" fill-opacity="0.16" stroke="#94a3b8" stroke-opacity="0.42"/>
    <rect x="326" y="16" width="68" height="50" rx="10" fill="#cbd5e1"/>
    <rect x="444" y="0" width="128" height="82" rx="22" fill="#22c55e" fill-opacity="0.14" stroke="#22c55e" stroke-opacity="0.42"/>
    <path d="M474 54h68l-10-24h-48z" fill="#4ade80"/>
    <rect x="592" y="0" width="128" height="82" rx="22" fill="#a855f7" fill-opacity="0.16" stroke="#a855f7" stroke-opacity="0.45"/>
    <rect x="618" y="22" width="76" height="38" rx="12" fill="#c084fc"/>
    <rect x="740" y="0" width="128" height="82" rx="22" fill="#0ea5e9" fill-opacity="0.16" stroke="#0ea5e9" stroke-opacity="0.45"/>
    <circle cx="784" cy="41" r="20" fill="#38bdf8"/>
    <circle cx="824" cy="41" r="20" fill="#60a5fa"/>
    <rect x="888" y="0" width="128" height="82" rx="22" fill="#f43f5e" fill-opacity="0.16" stroke="#f43f5e" stroke-opacity="0.45"/>
    <circle cx="938" cy="41" r="18" fill="#fb7185"/>
    <circle cx="970" cy="41" r="18" fill="#fda4af"/>
  </g>
</svg>
